<mxfile host="app.diagrams.net" agent="Mozilla/5.0 (Windows NT 10.0; Win64; x64) AppleWebKit/537.36 (KHTML, like Gecko) Chrome/133.0.0.0 Safari/537.36" version="26.0.16">
  <diagram name="PÃ¡gina-1" id="yd44l3jFPf9rMTNdN6AR">
    <mxGraphModel grid="1" page="1" gridSize="10" guides="1" tooltips="1" connect="1" arrows="1" fold="1" pageScale="1" pageWidth="827" pageHeight="1169" background="#ffffff" math="0" shadow="1">
      <root>
        <mxCell id="0" />
        <mxCell id="1" parent="0" />
        <mxCell id="HEkyvD3Bq-8IyN4m2fZt-2" value="" style="rounded=0;whiteSpace=wrap;html=1;fillColor=none;" vertex="1" parent="1">
          <mxGeometry x="-110" y="500" width="1210" height="780" as="geometry" />
        </mxCell>
        <mxCell id="HEkyvD3Bq-8IyN4m2fZt-3" value="" style="rounded=0;whiteSpace=wrap;html=1;fillColor=none;" vertex="1" parent="1">
          <mxGeometry x="-162" y="380" width="1372" height="970" as="geometry" />
        </mxCell>
        <mxCell id="HEkyvD3Bq-8IyN4m2fZt-4" value="" style="rounded=0;whiteSpace=wrap;html=1;fillColor=none;" vertex="1" parent="1">
          <mxGeometry x="-270" y="300" width="1600" height="1120" as="geometry" />
        </mxCell>
        <mxCell id="HEkyvD3Bq-8IyN4m2fZt-5" value="" style="rounded=0;whiteSpace=wrap;html=1;fillColor=none;" vertex="1" parent="1">
          <mxGeometry x="-425" y="204.06" width="1840" height="1300" as="geometry" />
        </mxCell>
        <mxCell id="pYMtCb9LmY0WAkOsxbuJ-2" value="AZURE" style="shape=image;verticalLabelPosition=bottom;labelBackgroundColor=default;verticalAlign=top;aspect=fixed;imageAspect=0;image=data:image/jpeg,/9j/4AAQSkZJRgABAQAAAQABAAD/2wCEAAkGBwgHBgkIBwgKCgkLDRYPDQwMDRsUFRAWIB0iIiAdHx8kKDQsJCYxJx8fLT0tMTU3Ojo6Iys/RD84QzQ5OjcBCgoKDQwNGg8PGjclHyU3Nzc3Nzc3Nzc3Nzc3Nzc3Nzc3Nzc3Nzc3Nzc3Nzc3Nzc3Nzc3Nzc3Nzc3Nzc3Nzc3N//AABEIAMAAzAMBEQACEQEDEQH/xAAcAAEBAAIDAQEAAAAAAAAAAAAAAQUHAgMGCAT/xAA/EAABAwIDAgoHBgYDAQAAAAABAAIDBBEFBiEUMRITIkFRYXGBobEHFTJUcpGTUlOSwdHhI0JigqLCFjNDNP/EABoBAQACAwEAAAAAAAAAAAAAAAABBQIDBgT/xAAtEQEAAgEDBAIABQQDAQAAAAAAAQIDBBESBSFBURMxYaGxwfAVUnHRIjJCgf/aAAwDAQACEQMRAD8A3igICAgICAgIOqWaKAcKaVkbel7gAn+D6cBVQObdtRER0h4WXG3qWHyUjyu0w/fxfjCcLepPkp7Nph+/i/GE4W9SfJT2bTD9/F+MJwt6k+Sns2mH7+L8YThb1J8lPZtMP38X4wnC3qT5KezaYfvo/wAYThb1J8lPaieJxsJWG/Q4KONo8HyUntu7RuUM1QEBAQEBAQEBAQEBAQEBBi8yYqzBMFrMRkAdxMZLW/adzD5rPHSb3isMMlorXeXzni2J1+LVb6vEamSaZ/2jo3qA3ABXdMdaRtEKuclrTvK4Pi1RhNax7JHOgLhxsR9lzefv6Cm8w0ZsNctdpjv4ls4FrmhzbFrgCD0hblDMbL3obnegFBLobF0EPMiYekyricrp9ineXscCYy7mtzKu1uCOPyV/+rvpWsvz+K07x4/B60blWOgVAQEBAQEBAQEBAQEBAug1j6a8V4ukocIjdyp3maWx/lb7IPadf7SvfoKbzN/Txay/aKtRncrKXgdTxdYS2Q2NlKs2zA4eEbyQ/wAN1+r9lnSeyl1mPhln8e7MXWbyl0BEoghQFI7KWodS1UMzbl0bw6w5xzjzWF6c6zWfLZivOO9ckeJbMjkZJGyRjgWuAII5wVz0xMTtLta2i1YtH1LmoZCAgICAgICAgICAgIId6D55z/ifrfNtfM114YnCni5xwWaeLuEe9XmmpwxRHtUZ78sky88VvanW4LCWUS9FkSs4qunonmzZm8Nl/tD9vJRTtLya6m+OL+nuDotqpEEugKRCgXRKF3Mg9zlKq2jCWRuN3QEx938vh5Kl1tOGWfx7uo6Xm+TTxE+OzOLyLIQEBAQEBAQEBAQEBBiM14mMHy/XV17OjiPA6eEdB4rZipzyRVhktxpMvm/U6uNydSelX+23aFLuikRwWMwmFo6l1DX09Uz/AMpA49Y5x8rhYSm1OdJp7bUDmuAc0gtcAWnpHMtsOfntOyqTZCUSl0Eugl0SJsM9k6qEWIPp3HkzN/yG5eHX498fP0tek5eOaae3uVUOkEBAQEBAQEBAQEBBCbINZemnFOBS0OFRu1ldx0g/pbuv3nwVhoMe8zf08Wsv2irU6tFbuiJColLpeFhZlEtgZUrNqwaEON3w/wAM927wWVJ3hU6unDLP4svdZvMXRKXU7BdNhLoIg7aWodS1MVQ3fG4O7VjekXrNZ8tmPJOO9bx4bQilbLG17dWuAIPaucmNpmHZ1tFoiYdihkICAgICAgICAgII5RI+es+Yp63zZXztdeGJ+zxfCzQ/N3CPer7TY+GKIU2ovyySwFl6GlFBuiJ3cHBYzDKGfyTVmKvmpHnSVt2/EP28ljWdpeXWU5Y4v6e0utqrS6lJdBLoCCXQTsRL3mT6vacJZGTy4HGM9m8eB8FS63Hxy7x5dL0vN8mCK+a9v9M+vGsxAQEBAQEBAQEBBh824oMGy9XVwNpI4iI/jOjfE+C2Yac7xVry34UmXzlawA3roVGIFkCyDi5YzDKJSkqXUVZBUt3wvDu0c/hdYT2ndNqxes1bPa4PY1zDdpFwekcy2wpJiYmYkUoS6AUEUpRAug9Bkur4nFHU7jyZ2W7xcj8wvBr6csfL1K06Vk4ZprP1aP5+73ip3SCAgICAgICAgIIUGsvTNilqehwpjtXuM0g6hoPEqy6dj3mbvBrr7VirVPPqrRXeRNkCbJFAjlA6XjesbM6y9zlWq2jBomk8uD+ER1Dd4LKk7qzVU45Jn2y5KyedFIICAg4ol20tQ6lqYZ2GxicHLG9YvWayzx5Jx3i/ptSCYTRMkYbteA4Lm5iazMS7KtuUbw7VDIQEBAQEBAQEEcg+fM9Yp62zVXVDTeON/ERHpa3Tzur/AE2PhiiFJqL88kywC3tAiRBECyDrkGhWEs4ZvJ1SYsQlp3HkTNuO0fsVFe0vPq68scW9PYX1W1W/it0EKJS6BdBxupBBsDJlZtOEtjceXTu4s9m8eCo9dj45d/bpemZvkw7f29noF41kICAgICAgICDC5xxQ4PlqvrWG0rIi2L43aN8SFuwY/kyxVqzX4Y5s+dwANBzLoVEIIgIChIg4OCiUw9/6JMBbiEuJ10zRwWQ7PET9p2p/JV+ry8LViHswYYy0vE+X65GmORzHizmHgnuVjE7xEudtExO0+HG6lCXQQqQQS6JLoPQZIrOIxc07jZlQywH9Q1HhdeHqGPfFFvX7rLpeXhn4f3R+cNgqldIICAgICAgII7cg1j6ZsTtDQ4U0+04zyAdWjfzVl02m8zklXa+/aKQ1b12srX67K2e/cQRARIgiCOtY33KEt+ejvCzhWUaGORtpp27RKLc79QD1hvBHcqDU355Z/DsusFOOOGAzdSbLjUhAsycCRvkfHXvVtocnPD/hzvUsXx6mfU9/9sMvW8KFEwXQS6AgiDspZ3UtVFUM9qJ4cO4rG9edZr7Z47zS8Xjw2zTStnhjlYbte0OHYVzdo4zMOwpaLRyj6l3LFmICAgICAgjtyD59zvifrbM9dUNN42P4qP4W6ed10Olx/HiiFFqb88sywRW9oRAQFCRBEGSy1hZxnH6LD7XZJKOM+Aau8BbvWrPf48c2bsNOd4h9GtbZoba1hYLnd/K8js83nmj4zDo6pou6B+vwnTzsvf0/JxyTSfKq6ti5YoyR91/R4QkcyuXP+S6CICJS6kLoJfqSBsPJFZtOEticbvgcWHs3hUeux8Mu/vu6TpmXng4+Y/kPRLxLEQEBAQEBBhc44qMHy3XVoNpGx8GLre7kt8St2DH8mSKtOe/DHMvnrcAL3039K6NQTKKAQESiAgJsNkehnC+HW1uKPbpE0QxnrOrvIKs6jk7VqstDj7zZtlVSyfnxCnbV0c1O8XEjC1Z0vNLRaGvLjjJSaT5amex0T3Rv9phLT2jRdJE8o3hx81mszWfDjdZIQlBLoF0EQS6Gz0WRa0U2MGnceTUs4I+JtyPC68PUMXLHyjwsumZuGfj/AHft/JbEBBVI6NUBAQEBBDuQaw9MuJcnD8LY7e41Eg7OS3zd4K06Zj72ureoX7RRrBWyrFGyRBCbILZQIgh0BRLf2QMM9VZWoYnNtJKzjpO12vlYLntVfnlmV7pqcMUPRrQ3uLtQg1vnGk2XGnuaLNnAkHbz+KvNBk54dvTmeo4vj1EzHnuwgK9rwIUC6CXTZJdNhFI508z6epinj9uJ7Xt7QbrG9YvWaz5Z0tNLRaPuG36SZlRBHNFqyRoc09RXM2rNbTWfDrqWi9YtHl3LFmICAgIId3Qg+fc54kcWzLXVIN4w/i4/hbp+RXRaXH8eKIUGpyc8sywll6GjcIQRB3U8YkvwtQOZbMdIlqy3mv07tni+ytnx1aflubPF0H5p8dUfLY2eLnaSOg6qPiomM147vV/88zEAAKyMW5hAz9F5P6bp/X5vX/UtRHn8j/n2Y/fWfQZ+if03TevzP6nqPf5OD8/Zkt/9rPoM/RYz07Tx4/NlHUtR7/J+dmZ8SxmsiixWdsoa13FkRtaQdCdw6lOPT48O/CPtq1Ge+eIm/h+wlbNnjS6bJFIiBdBESXUjYuQ63acH4gnl0ziw9h1CouoY+GbePqXRdMycsPH+3s9KvCsRAQEBBhM44p6oy3XVY9sRlsfW92g8St2nx/JlirTnyfHjmz595h436V0v4OdEAomJLIndyjeWOuDpzhTWZhhesWh+uNwe2471vrbd5LVms7OSyYiAgIODgollDqa8wzRzN3scCtF4bq+nrWuD2te03DhcdiwapjuXRCIkupBBLoIdyGz0WRa/ZcZ4hx5FSwtA/qGo/NeDqGPlii3pY9My8c3Gf/X6tkg3VG6JUBAQCg1d6YsT1oMKjd01Eo/xZ/t8grXpmP7vKr6jk7VpDWllbKsQLICCWQcmPLDcKYnad0WrFo2l+uN7Xi439C31tFoeW1Zq5LJgICDiQolLpkGhWu0NlZZ3BZuNomsJ5UZ4H6LSm8d9377qWCXQRE7F0NkQ2LoOcE76aeOoi/7InB7e0G6i1YtE1n6lNbTSYtH3DcdHUMqqaKoiN45WB7ewi65e1Zpaaz4dfS8XrF4+p7u9YshAQQ7kHz7m/EvW2ZK6rBuwycCP4W6BdJpcfx4oq53U355plh16GgQRQkQEBBk8s4ccWx+ioBcCaTlkczACXeAK1Zsvw45u24cUZrxWfpls0Zbqsv1nAkBkpn34qcDR3UegrZpNXXUV3j78w0avSW09vw8Swi9bxiCIOt4WEs4l+nBZuKrHRk2EjdO0LRLZPevZnkYbIhsXQS6CXQLokuOdShsj0f1u04Ls7jd9M8t/tOo/NUPUMfHNvHl0PTcvLFx9PTrwrEQEGDzjifqrLdbUg2k4sxx/E7QLfpsfyZYq0ajJGPHNmgei+ptrddM5zcUJQoCAgiAoS2R6HcM4dTXYq9ukbRTxnrNnO/18VVdTy9oxx/ladOx95vLZWI0FNiNHJS1kTZIXixB8+1VmO9sd4vX7WN8dclZraOzTmbMrVGX5+ELy0TzaOXo6ndfmul0msrqI2+renN6zRWwTvHerzy9rwIg4uUSyh0hxilZK32mOBHctN4bqenqGvD2hzTySLhYMFuiEQFKUugl0BB6PIVdsmNCAmzKlvA7xqPzXg6jj54uXpYdNy8M3H22aFROhVAO5Bq/0wYnd9FhUZ3AzygHta3/b5K26Xi7Tef8ACp6lk+qNbK3VSICAiYFAiCaa77hEt+5Iwz1Tlmip3ACRzOMk+J2p81zWqyfJlmXRabH8eOIZ9aG90VlLBWUslPVRMlhkHBcxw0IWVbWpblWdpY2rW1eNvpp/OOU5sBmdPBwpcPceS874+p36ro9Hrq542ntZzms0M4Z5V/6vMEWVgr3Fw0USQ6ZAVrtDZWWZwabjKQMJ1YeD3LUytHl+291LEugl0EQEC6DlBM+nqIp4v+yJ4e3rsdyi1YvE1nyyi00mLR9w3TRTsqqWKoiPCjlYHtPUQuWtWa2ms+HW0tFqxaPqXesWQdyD5/zfXuxLM2I1J9njjGzW9ms5I+dr95XTaXH8eGsfzu5vU5Pky2lh16HnRJSKBCgICJZbKmHHFcw0NJa7Hyhz/hbqfJefU5Pjw2t/O7fpsfyZoh9BgAAADQLmnRqgIOqphjnhdFNG18bxZzXC4IUxaazvCJiJjaWo86ZPlwWR9ZQB0uHuN7b3Q9R/p6D3HpPQ6LXxmiKZP+36ue1uhnFM2pG9f0eSIVmrHU8aLCYZQ78HkMdWWcz2+IWmftt+4ZpGAgIJdEikRAueZBsv0dVbp8BMD/appSwfCdR5kdyoeo4+Obl7h0HTLzbBxn/zO37/ALvUrwLAQaRz5lqswnF6ipZC99DUSGSOVouGlxuWnoIN7dIt1roNFqa5McVme8KDWaa1Mk2iN4l5ax6D8l7ni2lLHoPyRO0lj0H5IbSWPQfkhtJY9B+SiTaTgucbNa4noAUTMR9p4zPhtP0W5ZqaHjsWxCF0T5WcXTxvHKDTYucRzXsAOodapuo6mt9sdfH2uNBp5p/zt5bFVYshAQEHCZjZIyx7Q5rtC0i4ITv9wiY3jaWq86ZKloJXV+EwvkpDcyRMF3Rdg52+Sv8ARa+uSPjyztPtRa3QTT/nijt6eGe132XDtCtJmPtV8Zifp+vDKV7ZDO8FthZoI1PWtVmW/ZkrrFApSiAgl0BEuUcUk0jY4WOkkd7LGgkkqLTERvM7Jis27RG7auTMIkwjCOLqdKmV/GSC9+DzBvcB87rntZqIz5d6/UdnRaHTzgxbW+57s8vI9gg4OaHAggEHeDzp9TuT3dWw0t7mlg+mFlzt7Y8YNhpPdYPphOdvZxr6NhpPdYPphOdvZxr6NhpPdYPphOdvZxr6NhpPdYPphOdvZxr6VlJTxv4TKeFrulrACo5W9nGPTvChkICAgICCEbrIOl1JTvJL6eJxPOWArLnb2x419JsdN7tD9MJzt7OFfRsVN7rB9MJzt7k4V9GxUvusH0wnO3uThX0bFS+6wfTCc7e5OFfRsVN7rB9MJzt7k4V9Gx03u0P0wnO3uThX0uyU/u8P4AnK3s4V9OTIIozeOJjD0taAomZn7k4x6dgUMlQf/9k=;" vertex="1" parent="1">
          <mxGeometry x="-364" y="160" width="94" height="88.47" as="geometry" />
        </mxCell>
        <mxCell id="pYMtCb9LmY0WAkOsxbuJ-9" value="Subscription" style="image;aspect=fixed;html=1;points=[];align=center;fontSize=12;image=img/lib/azure2/general/Subscriptions.svg;" vertex="1" parent="1">
          <mxGeometry x="1197" y="260" width="44" height="71" as="geometry" />
        </mxCell>
        <mxCell id="pYMtCb9LmY0WAkOsxbuJ-10" value="resorce group" style="image;aspect=fixed;html=1;points=[];align=center;fontSize=12;image=img/lib/azure2/general/Resource_Groups.svg;" vertex="1" parent="1">
          <mxGeometry x="-100" y="340" width="68" height="64" as="geometry" />
        </mxCell>
        <mxCell id="pYMtCb9LmY0WAkOsxbuJ-12" value="virtual network" style="image;aspect=fixed;html=1;points=[];align=center;fontSize=12;image=img/lib/azure2/networking/Virtual_Networks.svg;" vertex="1" parent="1">
          <mxGeometry x="30" y="470" width="67" height="40" as="geometry" />
        </mxCell>
        <mxCell id="pYMtCb9LmY0WAkOsxbuJ-16" value="subnet&lt;div&gt;&lt;span style=&quot;color: rgba(0, 0, 0, 0); font-family: monospace; font-size: 0px; text-align: start; background-color: rgb(251, 251, 251);&quot;&gt;%3CmxGraphModel%3E%3Croot%3E%3CmxCell%20id%3D%220%22%2F%3E%3CmxCell%20id%3D%221%22%20parent%3D%220%22%2F%3E%3CmxCell%20id%3D%222%22%20value%3D%22%22%20style%3D%22whiteSpace%3Dwrap%3Bhtml%3D1%3Baspect%3Dfixed%3B%22%20vertex%3D%221%22%20parent%3D%221%22%3E%3CmxGeometry%20x%3D%22-130%22%20y%3D%22350%22%20width%3D%22630%22%20height%3D%22630%22%20as%3D%22geometry%22%2F%3E%3C%2FmxCell%3E%3C%2Froot%3E%3C%2FmxGraphModel%3E&lt;/span&gt;&lt;/div&gt;" style="image;aspect=fixed;html=1;points=[];align=center;fontSize=12;image=img/lib/azure2/networking/Subnet.svg;" vertex="1" parent="1">
          <mxGeometry x="60" y="630" width="68" height="40.72" as="geometry" />
        </mxCell>
        <mxCell id="pYMtCb9LmY0WAkOsxbuJ-17" value="subnet&lt;div&gt;&lt;span style=&quot;color: rgba(0, 0, 0, 0); font-family: monospace; font-size: 0px; text-align: start; background-color: rgb(251, 251, 251);&quot;&gt;%3CmxGraphModel%3E%3Croot%3E%3CmxCell%20id%3D%220%22%2F%3E%3CmxCell%20id%3D%221%22%20parent%3D%220%22%2F%3E%3CmxCell%20id%3D%222%22%20value%3D%22%22%20style%3D%22whiteSpace%3Dwrap%3Bhtml%3D1%3Baspect%3Dfixed%3B%22%20vertex%3D%221%22%20parent%3D%221%22%3E%3CmxGeometry%20x%3D%22-130%22%20y%3D%22350%22%20width%3D%22630%22%20height%3D%22630%22%20as%3D%22geometry%22%2F%3E%3C%2FmxCell%3E%3C%2Froot%3E%3C%2FmxGraphModel%3E&lt;/span&gt;&lt;/div&gt;" style="image;aspect=fixed;html=1;points=[];align=center;fontSize=12;image=img/lib/azure2/networking/Subnet.svg;" vertex="1" parent="1">
          <mxGeometry x="610" y="630" width="68" height="40.72" as="geometry" />
        </mxCell>
        <mxCell id="pYMtCb9LmY0WAkOsxbuJ-20" value="" style="rounded=0;whiteSpace=wrap;html=1;fillColor=none;" vertex="1" parent="1">
          <mxGeometry x="-50" y="650" width="530" height="520" as="geometry" />
        </mxCell>
        <mxCell id="pYMtCb9LmY0WAkOsxbuJ-21" value="" style="rounded=0;whiteSpace=wrap;html=1;fillColor=none;" vertex="1" parent="1">
          <mxGeometry x="540" y="649" width="500" height="520" as="geometry" />
        </mxCell>
        <mxCell id="pYMtCb9LmY0WAkOsxbuJ-36" style="edgeStyle=orthogonalEdgeStyle;rounded=0;orthogonalLoop=1;jettySize=auto;html=1;dashed=1;" edge="1" parent="1" source="pYMtCb9LmY0WAkOsxbuJ-22" target="pYMtCb9LmY0WAkOsxbuJ-23">
          <mxGeometry relative="1" as="geometry" />
        </mxCell>
        <mxCell id="pYMtCb9LmY0WAkOsxbuJ-22" value="" style="image;aspect=fixed;html=1;points=[];align=center;fontSize=12;image=img/lib/azure2/compute/Virtual_Machine.svg;" vertex="1" parent="1">
          <mxGeometry x="170" y="800.73" width="115" height="106.67" as="geometry" />
        </mxCell>
        <mxCell id="pYMtCb9LmY0WAkOsxbuJ-23" value="" style="image;aspect=fixed;html=1;points=[];align=center;fontSize=12;image=img/lib/azure2/compute/Virtual_Machine.svg;" vertex="1" parent="1">
          <mxGeometry x="740" y="810" width="95" height="88.12" as="geometry" />
        </mxCell>
        <mxCell id="pYMtCb9LmY0WAkOsxbuJ-25" value="" style="image;aspect=fixed;html=1;points=[];align=center;fontSize=12;image=img/lib/azure2/networking/Network_Interfaces.svg;" vertex="1" parent="1">
          <mxGeometry x="820" y="800" width="56.67" height="50" as="geometry" />
        </mxCell>
        <mxCell id="pYMtCb9LmY0WAkOsxbuJ-26" value="" style="image;aspect=fixed;html=1;points=[];align=center;fontSize=12;image=img/lib/azure2/networking/Network_Security_Groups.svg;" vertex="1" parent="1">
          <mxGeometry x="450" y="710" width="56.00000000000001" height="68" as="geometry" />
        </mxCell>
        <mxCell id="pYMtCb9LmY0WAkOsxbuJ-27" value="" style="image;aspect=fixed;html=1;points=[];align=center;fontSize=12;image=img/lib/azure2/networking/Network_Security_Groups.svg;" vertex="1" parent="1">
          <mxGeometry x="860" y="832.1999999999999" width="36" height="43.72" as="geometry" />
        </mxCell>
        <mxCell id="pYMtCb9LmY0WAkOsxbuJ-29" style="edgeStyle=orthogonalEdgeStyle;rounded=0;orthogonalLoop=1;jettySize=auto;html=1;dashed=1;" edge="1" parent="1" source="pYMtCb9LmY0WAkOsxbuJ-28" target="pYMtCb9LmY0WAkOsxbuJ-22">
          <mxGeometry relative="1" as="geometry" />
        </mxCell>
        <mxCell id="pYMtCb9LmY0WAkOsxbuJ-30" style="edgeStyle=orthogonalEdgeStyle;rounded=0;orthogonalLoop=1;jettySize=auto;html=1;dashed=1;" edge="1" parent="1" source="pYMtCb9LmY0WAkOsxbuJ-28" target="pYMtCb9LmY0WAkOsxbuJ-23">
          <mxGeometry relative="1" as="geometry">
            <Array as="points">
              <mxPoint x="-550" y="1600" />
              <mxPoint x="788" y="1600" />
            </Array>
          </mxGeometry>
        </mxCell>
        <mxCell id="pYMtCb9LmY0WAkOsxbuJ-28" value="" style="image;aspect=fixed;html=1;points=[];align=center;fontSize=12;image=img/lib/azure2/compute/Virtual_Machine.svg;" vertex="1" parent="1">
          <mxGeometry x="-600" y="811.86" width="91" height="84.41" as="geometry" />
        </mxCell>
        <mxCell id="pYMtCb9LmY0WAkOsxbuJ-31" value="" style="shape=image;html=1;verticalAlign=top;verticalLabelPosition=bottom;labelBackgroundColor=#ffffff;imageAspect=0;aspect=fixed;image=https://cdn4.iconfinder.com/data/icons/icocentre-free-icons/137/f-check_256-128.png" vertex="1" parent="1">
          <mxGeometry x="-380" y="800" width="48" height="48" as="geometry" />
        </mxCell>
        <mxCell id="pYMtCb9LmY0WAkOsxbuJ-33" value="" style="sketch=0;aspect=fixed;pointerEvents=1;shadow=0;dashed=0;html=1;strokeColor=none;labelPosition=center;verticalLabelPosition=bottom;verticalAlign=top;align=center;shape=mxgraph.mscae.enterprise.not_allowed;fillColor=#EA1C24;" vertex="1" parent="1">
          <mxGeometry x="-520" y="1540" width="40" height="40" as="geometry" />
        </mxCell>
        <mxCell id="pYMtCb9LmY0WAkOsxbuJ-37" value="" style="shape=image;html=1;verticalAlign=top;verticalLabelPosition=bottom;labelBackgroundColor=#ffffff;imageAspect=0;aspect=fixed;image=https://cdn4.iconfinder.com/data/icons/icocentre-free-icons/137/f-check_256-128.png" vertex="1" parent="1">
          <mxGeometry x="490" y="811.86" width="38" height="38" as="geometry" />
        </mxCell>
      </root>
    </mxGraphModel>
  </diagram>
</mxfile>
